<svg width="234" height="404" viewBox="0 0 234 404" fill="none" xmlns="http://www.w3.org/2000/svg">
<path d="M83.6794 398.79H74.4694L72.3594 334.15H85.7694L83.6794 398.79Z" fill="#F3C07F" stroke="#221F20" stroke-width="2.23" stroke-miterlimit="10"/>
<path d="M83.6794 398.79H74.4694L72.3594 334.15H85.7694L83.6794 398.79Z" fill="#F3C07F" stroke="#221F20" stroke-width="2.23" stroke-miterlimit="10"/>
<path d="M113.699 398.79H123.499L125.739 334.15H111.469L113.699 398.79Z" fill="#F3C07F" stroke="#221F20" stroke-width="2.3" stroke-miterlimit="10"/>
<path d="M113.699 398.79H123.499L125.739 334.15H111.469L113.699 398.79Z" fill="#F3C07F" stroke="#221F20" stroke-width="2.3" stroke-miterlimit="10"/>
<path d="M63.9297 294.661L67.8696 352.881C67.8696 352.881 78.5596 360.371 93.2496 352.881L95.6897 330.531H102.27L105.99 352.881C120.68 360.371 132.74 352.881 132.74 352.881L133.96 294.661H63.9297Z" fill="#AFB0AF" stroke="#0D0D0D" stroke-width="2.7" stroke-miterlimit="10"/>
<path d="M66.7694 300.001C65.5794 298.761 64.6894 297.181 63.9094 295.551C63.8594 295.461 63.8094 295.361 63.7694 295.261C63.0994 293.841 62.5293 291.991 61.3193 291.111C61.2193 291.031 61.1094 290.991 61.0094 290.921C59.8594 281.941 57.7094 252.231 74.0194 221.501C74.0194 221.501 70.3193 210.291 65.9593 211.811C65.9593 211.811 42.4494 251.351 53.3994 292.571C53.1094 292.921 52.9493 293.171 52.9493 293.171C50.5693 296.001 51.2393 301.981 51.2393 301.981C51.2393 301.981 51.6093 307.621 54.9593 313.351C56.0593 314.721 56.8894 313.851 56.8894 313.851C57.9594 313.121 56.7694 310.641 56.7694 310.641L54.4094 303.061C54.4094 303.061 55.1493 304.931 56.5993 309.601C56.5993 309.601 58.1193 314.921 60.3693 314.251C60.3693 314.251 62.1993 313.291 60.5793 310.931C60.5793 310.931 58.0794 305.171 57.8994 302.561C58.7394 306.531 60.6894 310.261 60.6894 310.261C62.9194 314.301 63.8994 313.031 63.8994 313.031C63.8994 313.031 65.0894 312.301 64.5394 310.441C64.5394 310.441 62.2394 305.651 61.0294 301.441C61.0294 301.441 61.0294 299.871 62.4994 301.021C63.3294 302.001 64.1393 303.001 64.9793 303.951C65.6693 304.721 66.7894 304.811 67.4194 303.911C67.4194 303.911 68.7994 302.091 66.7894 300.001H66.7694Z" fill="#F3C07F" stroke="#221F20" stroke-width="1.83" stroke-miterlimit="10"/>
<path d="M143.71 292.56C154.66 251.33 131.95 205.63 131.95 205.63C127.59 204.11 123.08 221.49 123.08 221.49C139.39 252.22 137.25 281.94 136.09 290.92C135.99 290.99 135.89 291.03 135.79 291.11C134.57 291.99 134 293.84 133.33 295.26C133.29 295.36 133.24 295.45 133.2 295.55C132.41 297.18 131.54 298.77 130.33 300.01C128.32 302.09 129.7 303.91 129.7 303.91C130.33 304.81 131.46 304.72 132.15 303.95C132.99 303 133.8 301.99 134.62 301.01C136.1 299.87 136.1 301.43 136.1 301.43C134.89 305.64 132.58 310.43 132.58 310.43C132.03 312.29 133.22 313.02 133.22 313.02C133.22 313.02 134.2 314.29 136.43 310.25C136.43 310.25 138.37 306.52 139.22 302.55C139.04 305.17 136.54 310.92 136.54 310.92C134.91 313.27 136.75 314.23 136.75 314.23C139 314.9 140.52 309.59 140.52 309.59C141.97 304.91 142.71 303.04 142.71 303.04L140.35 310.62C140.35 310.62 139.17 313.11 140.24 313.83C140.24 313.83 141.06 314.7 142.16 313.32C145.5 307.6 145.87 301.95 145.87 301.95C145.87 301.95 146.54 295.97 144.16 293.14C144.16 293.14 144 292.89 143.71 292.55V292.56Z" fill="#F3C07F" stroke="#221F20" stroke-width="1.83" stroke-miterlimit="10"/>
<path d="M129.749 203.821C127.919 196.791 123.349 195.641 123.349 195.641L108.599 192.141V184.971H89.2594V192.171L74.6194 195.641C74.6194 195.641 70.0494 196.791 68.2194 203.821C67.0894 243.431 66.1195 265.501 64.1895 297.341C64.1895 297.341 78.4294 304.291 98.9894 303.641C119.549 304.291 133.789 297.341 133.789 297.341C132.999 280.701 131.399 244.371 129.759 203.821H129.749Z" fill="#F3C07F" stroke="#221F20" stroke-width="2.7" stroke-miterlimit="10"/>
<path d="M144.37 225.851L140.81 214.781C135.93 196.301 123.829 195.751 123.829 195.751C123.829 195.781 123.82 195.811 123.81 195.841C123.48 195.701 123.28 195.641 123.28 195.641L109.8 192.451C108.59 203.841 98.3795 206.381 98.3795 206.381C87.6395 206.651 87.4595 192.581 87.4595 192.581L74.5496 195.631C74.5496 195.631 74.4195 195.661 74.2195 195.741C73.2495 195.821 61.9895 197.091 57.3195 214.761L53.7695 225.831C53.7695 225.831 57.9195 235.001 66.8895 236.941C66.0295 257.971 65.2195 274.161 64.1195 297.331C64.1195 297.331 78.3595 304.281 98.9095 303.631C119.46 304.281 133.709 297.331 133.709 297.331C132.429 270.991 131.69 253.651 131.02 236.991C140.15 235.161 144.37 225.841 144.37 225.841V225.851Z" fill="#E06352" stroke="#221F20" stroke-width="2.7" stroke-miterlimit="10"/>
<path d="M26.1974 73.5716C26.1974 73.5716 27.8875 93.1716 32.3875 98.9016C36.8875 104.632 39.6974 127.462 39.6974 127.462L46.4674 106.842V88.6616L39.9874 70.8516C39.9874 70.8516 29.0075 76.3116 26.1875 73.5816L26.1974 73.5716Z" fill="#251811" stroke="#221F20" stroke-width="2" stroke-miterlimit="10"/>
<path d="M151.969 139.791L134.609 80.6512C134.419 79.9912 133.809 79.5312 133.119 79.5312H48.3987C48.2187 79.5312 41.5387 77.8912 41.3687 77.8312L19.5687 70.4012C19.0387 70.2212 18.9287 69.5212 19.3787 69.2012C21.7687 67.4612 27.3487 62.9712 28.8487 57.8312C31.4787 48.8212 37.4187 37.8812 57.0887 21.0112C57.1187 20.9912 57.1388 20.9612 57.1688 20.9412C58.3088 19.7712 87.8588 -5.10877 123.809 4.52123C123.959 4.56123 124.179 4.67123 124.299 4.76123L128.229 7.22123L127.619 6.23123C126.809 5.74123 126.429 5.16123 127.069 4.47123C127.749 3.74123 128.279 3.98123 129.219 4.70123C138.389 11.7612 164.049 30.9512 171.459 37.8312C172.269 38.5812 173.569 38.2612 173.949 37.2312C175.939 31.8612 180.829 20.4612 180.269 40.2012C180.239 41.1712 181.009 41.9812 181.969 41.9912C186.899 42.0812 199.539 42.7112 185.079 46.9212C184.159 47.1912 183.699 48.2212 184.119 49.0812C188.109 57.2412 203.939 94.0012 181.659 123.351C181.609 123.421 181.569 123.491 181.529 123.561L173.009 140.061C172.739 140.581 172.209 140.901 171.629 140.901H153.469C152.779 140.901 152.169 140.441 151.979 139.781L151.969 139.791Z" fill="#402A19" stroke="#221F20" stroke-width="3" stroke-miterlimit="10"/>
<path d="M41.3598 77.8319C41.3598 77.8319 36.2898 91.9119 41.3598 112.182C41.3598 112.182 43.0498 117.252 39.1098 133.582C39.1098 133.582 31.7898 173.562 75.7098 190.462C75.7098 190.462 135.96 216.362 159.05 152.172C159.05 152.172 167.74 168.562 182.99 138.412C183.92 136.582 184.29 134.482 183.82 132.482C183.35 130.482 181.98 128.192 178.5 127.232C175.02 126.272 171.03 127.302 168.17 129.722C166.11 131.452 164.11 133.882 164.11 136.732L169.36 128.142L156.22 139.782C156.22 139.782 143.27 116.132 143.83 95.2919C143.83 95.2919 142.22 78.0119 148.17 66.1919C148.8 64.9319 147.41 63.6219 146.19 64.3119C138.31 68.7819 123.68 75.0419 107.79 71.6419C84.1399 66.5719 94.8399 62.0719 58.7999 70.5119L41.3398 77.8319H41.3598Z" fill="#F3C07F" stroke="#221F20" stroke-width="3" stroke-miterlimit="10"/>
<path d="M158.809 69.2915L167.259 87.8715C167.259 87.8715 173.448 73.2315 175.708 82.2415C175.708 82.2415 178.529 73.0915 183.029 72.0315C183.029 72.0315 178.529 56.3315 175.149 53.5215C175.149 53.5215 178.528 67.6015 167.828 63.0915L158.818 69.2815L158.809 69.2915Z" fill="white" stroke="#221F20" stroke-miterlimit="10"/>
<path d="M161.909 43.3916C161.909 43.3916 156.839 27.6216 134.879 23.6816C134.879 23.6816 148.959 39.4516 132.629 33.5316C132.629 33.5316 130.939 43.3816 119.119 40.0116C119.119 40.0116 115.179 42.8316 137.139 53.5216C137.139 53.5216 138.269 46.2016 143.899 49.0216C149.529 51.8416 142.769 37.1916 161.919 43.3916H161.909Z" fill="white" stroke="#221F20" stroke-miterlimit="10"/>
<path d="M168.178 48.8105C162.008 55.1505 154.558 60.5805 147.508 65.9105C149.978 62.0905 153.428 59.0605 156.888 56.2005C160.428 53.4105 164.098 50.8005 168.178 48.8105Z" fill="#221F20"/>
<path d="M177.986 143.844C180.739 141.09 181.337 137.225 179.322 135.21C177.307 133.195 173.441 133.793 170.688 136.546C167.935 139.299 167.337 143.165 169.352 145.18C171.367 147.195 175.232 146.597 177.986 143.844Z" fill="#E6A556"/>
<path d="M168.89 148.251C165.44 142.521 167.65 132.841 175.65 133.581C174.19 134.251 172.86 134.941 171.85 135.921C168.6 139.111 168.93 143.971 168.89 148.251Z" fill="#221F20"/>
<path d="M168.639 138.241C170.409 137.371 172.649 138.651 173.379 140.371C174.009 141.661 174.019 143.041 173.669 144.361C173.169 145.791 173.109 145.821 172.689 144.361C171.849 141.781 171.419 139.671 168.639 138.241Z" fill="#221F20"/>
<path d="M97.0488 193.852C97.0488 193.852 129.309 190.332 144.699 164.092C160.089 137.852 156.709 153.462 156.709 153.462C156.709 153.462 144.659 198.652 97.0488 193.842V193.852Z" fill="#E6A556"/>
<path d="M162.629 139.981L155.449 145.581C155.449 145.581 145.329 119.281 142.709 113.651C142.709 113.651 143.949 71.6108 123.489 84.9208C123.489 84.9208 111.919 86.7808 101.789 82.2808C91.6595 77.7808 78.6594 75.7308 61.3494 79.8508C51.0294 82.3108 55.2294 85.9908 55.2294 85.9908C55.2294 85.9908 61.3794 92.3408 70.1394 99.2908C70.1394 99.2908 59.3995 102.321 54.8995 106.831C50.3995 111.341 43.4494 112.871 43.4494 112.871C43.4494 112.871 38.1695 99.1508 42.1895 78.5508C42.1895 78.5508 59.0594 71.4208 64.5694 70.4708C64.5694 70.4708 76.3994 67.4308 83.9494 66.8108C85.5194 66.6808 91.0594 67.0008 92.4894 67.6508C98.8294 70.5208 119.769 79.0608 142.479 67.6308C142.569 67.5908 142.649 67.5308 142.739 67.4908L147.859 65.0508C148.059 65.5808 148.029 66.1608 147.769 66.6608C145.909 70.3508 137.349 86.9408 146.079 119.661L155.819 142.181L162.589 136.181L162.639 139.971L162.629 139.981Z" fill="#E6A556"/>
<path d="M52.2982 172.831C52.2982 172.831 43.0981 156.191 44.5981 143.621C46.0981 131.051 42.6681 127.671 41.3181 131.211C39.6981 135.451 37.5882 157.491 52.2982 172.831Z" fill="#F8D7AA"/>
<path d="M88.0776 190.651C89.5854 190.651 90.8077 189.791 90.8077 188.731C90.8077 187.67 89.5854 186.811 88.0776 186.811C86.5699 186.811 85.3477 187.67 85.3477 188.731C85.3477 189.791 86.5699 190.651 88.0776 190.651Z" fill="#E6A556"/>
<path d="M92.5195 184.971C90.4695 186.241 87.3795 186.291 85.7695 184.281C87.6095 185.991 90.3195 185.901 92.5195 184.971Z" fill="#221F20"/>
<path opacity="0.44" d="M109.639 154.521C110.649 154.521 111.469 154.32 111.469 154.071C111.469 153.823 110.649 153.621 109.639 153.621C108.628 153.621 107.809 153.823 107.809 154.071C107.809 154.32 108.628 154.521 109.639 154.521Z" fill="white"/>
<path d="M84.0486 149.071C84.2186 149.021 84.3786 149.001 84.5486 149.001C85.7986 149.001 91.4286 148.981 93.4386 148.521C95.6986 148.001 98.7286 148.411 96.2886 151.241C95.4186 152.251 89.9786 154.351 83.1386 153.381C74.0286 152.091 82.4486 149.531 84.0486 149.081V149.071Z" fill="#F6D1A6"/>
<path d="M26.1992 68.5813C31.5792 68.9313 36.8192 70.2213 41.9492 71.7813L40.6593 71.7913C45.4393 69.9313 50.3393 68.3413 55.2993 67.0213C56.9693 66.5613 58.6593 66.2113 60.2893 65.6113C59.1693 67.0413 57.6193 68.0113 56.1693 68.9813C51.5293 71.8913 46.4793 74.0013 41.2993 75.7213C36.0593 73.8313 30.8792 71.6413 26.1992 68.5713V68.5813Z" fill="#674121"/>
<path d="M45.1577 37.841C45.1577 37.841 73.5977 13.061 95.5577 12.221C117.518 11.381 130.958 11.211 130.958 11.211C130.958 11.211 121.198 0.871015 102.318 4.62102C102.318 4.62102 71.7276 3.80102 43.6976 36.331C43.6976 36.331 40.1777 41.891 45.1677 37.851L45.1577 37.841Z" fill="#674121"/>
<path d="M141.93 57.3612C145.11 54.4212 148.97 52.8212 152.82 50.9512C150.95 54.8212 146.06 57.0312 141.93 57.3612Z" fill="#221F20"/>
<path d="M152.818 44.9506C152.748 43.4706 154.658 42.8106 155.848 43.0006C157.098 43.1806 158.168 43.8106 158.808 44.9506C157.648 45.2206 156.678 45.1106 155.608 44.9906C154.668 44.9206 153.838 44.6106 152.818 44.9506Z" fill="#221F20"/>
<path d="M146.059 105.321C146.059 105.321 151.809 111.561 160.259 115.481C165.339 117.831 174.789 121.321 174.789 121.321L156.649 137.441C156.649 137.441 147.529 118.561 146.059 105.321Z" fill="#241710"/>
<path d="M83.5981 137.611C81.9181 146.161 77.3781 151.711 75.0681 151.251C72.7581 150.791 79.6381 145.451 79.5981 136.821C79.5581 127.021 78.1581 120.451 80.4681 120.901C82.7781 121.351 85.2781 129.051 83.5981 137.601V137.611Z" fill="#E6A556"/>
<path d="M81.3878 123.502C85.4178 130.942 84.5278 140.882 79.5078 147.652C81.8678 139.712 82.6378 131.782 81.3878 123.502Z" fill="#221F20"/>
<path d="M79.3786 148.252C78.7186 149.112 78.0585 149.982 77.8485 150.792C77.7385 151.182 77.8186 151.462 77.9386 151.552C79.4486 152.642 81.8786 152.892 83.7986 153.142C87.7786 153.522 91.6586 153.072 95.7786 152.712C94.1686 154.232 92.1785 155.212 90.0885 155.892C85.7685 157.172 80.6386 157.112 76.8986 154.162C74.1286 151.702 76.4686 148.752 79.3786 148.252Z" fill="#221F20"/>
<path d="M147.648 398.722C147.778 399.032 147.878 399.342 147.908 399.662C147.978 400.552 147.528 401.502 146.478 402.062C145.628 402.512 144.498 402.662 143.418 402.782C134.718 403.732 125.848 403.662 117.028 403.592C115.448 403.582 113.698 403.522 112.548 402.802C111.398 402.082 111.278 400.942 111.678 399.892C123.728 400.852 135.888 400.512 147.648 398.722Z" fill="#221F20"/>
<path d="M112.127 399.031C114.727 395.331 118.047 391.531 124.267 390.221C125.627 389.931 127.037 389.791 128.457 389.741C131.497 389.651 134.577 390.071 137.317 390.961C141.337 392.271 144.597 394.501 146.677 397.121C147.077 397.631 147.427 398.161 147.657 398.711C139.647 399.931 131.447 400.461 123.227 400.391C119.377 400.351 115.527 400.191 111.688 399.891C111.797 399.591 111.947 399.301 112.137 399.031H112.127Z" fill="#333232"/>
<path d="M51.1186 398.722C50.9886 399.032 50.8886 399.342 50.8586 399.662C50.7886 400.552 51.2387 401.502 52.2887 402.062C53.1387 402.512 54.2686 402.662 55.3486 402.782C64.0486 403.732 72.9186 403.662 81.7386 403.592C83.3186 403.582 85.0686 403.522 86.2186 402.802C87.3686 402.082 87.4886 400.942 87.0886 399.892C75.0386 400.852 62.8786 400.512 51.1186 398.722Z" fill="#221F20"/>
<path d="M86.6394 399.031C84.0394 395.331 80.7194 391.531 74.4994 390.221C73.1394 389.931 71.7294 389.791 70.3094 389.741C67.2694 389.651 64.1893 390.071 61.4493 390.961C57.4293 392.271 54.1694 394.501 52.0894 397.121C51.6894 397.631 51.3394 398.161 51.1094 398.711C59.1194 399.931 67.3194 400.461 75.5394 400.391C79.3894 400.351 83.2393 400.191 87.0793 399.891C86.9693 399.591 86.8194 399.301 86.6294 399.031H86.6394Z" fill="#333232"/>
<path d="M83.469 91.6618C83.469 92.4818 83.5191 93.3418 83.9091 94.0618C84.3091 94.7818 85.1291 95.3218 85.9291 95.1518C86.2391 95.0818 86.519 94.9218 86.769 94.7118C88.819 92.9718 88.239 90.2018 87.699 87.9418C87.399 86.7018 87.2191 85.4218 86.9191 84.2018C86.7291 83.4318 85.8491 81.3318 86.1591 80.5918C84.6491 84.1418 83.489 87.8218 83.459 91.6618H83.469Z" fill="#92C4DE"/>
<path d="M91.7285 84.4516C91.6685 84.9216 91.6485 85.3916 91.7285 85.8616C91.8485 86.6316 92.2386 87.3816 92.9086 87.7716C93.0786 87.8716 93.2785 87.9416 93.4785 87.9416C93.8985 87.9316 94.2285 87.5916 94.4585 87.2416C95.4885 85.6816 95.0086 84.6316 94.5486 83.0816C93.9486 81.0216 93.9286 78.7716 93.3586 76.6816C92.8986 78.9816 92.3286 81.2516 91.8786 83.5616C91.8186 83.8616 91.7685 84.1516 91.7285 84.4516Z" fill="#92C4DE"/>
<path d="M78.0485 82.3012C77.6485 83.2312 77.1885 84.1312 76.9085 85.1012C76.7385 85.7212 76.6485 86.3912 76.8585 86.9912C77.0685 87.5912 77.6585 88.1012 78.2985 88.0512C78.8085 88.0112 79.2485 87.6212 79.4785 87.1612C79.7085 86.7012 79.7686 86.1812 79.8086 85.6612C79.9586 83.5812 79.9685 80.9612 79.1485 79.0312C78.7885 80.1213 78.5086 81.2313 78.0586 82.2913L78.0485 82.3012Z" fill="#92C4DE"/>
<path d="M133.559 87.8415C133.589 90.4315 133.789 93.1515 135.159 95.3515C135.649 96.1315 136.289 96.8415 137.129 97.2115C137.969 97.5815 139.019 97.5715 139.749 97.0115C140.449 96.4715 140.739 95.5315 140.689 94.6515C140.639 93.7715 140.299 92.9415 139.939 92.1415C139.229 90.6115 138.398 89.1415 137.708 87.6115C135.718 83.6215 135.079 78.9315 135.229 74.5215C134.649 76.3415 134.049 77.8415 133.879 79.7815C133.639 82.4615 133.538 85.1515 133.578 87.8415H133.559Z" fill="#92C4DE"/>
<path d="M143.958 149.592C143.958 149.662 143.968 149.722 143.978 149.792C144.088 150.742 144.488 151.712 145.298 152.332C145.768 152.702 146.418 152.942 147.028 152.812C147.628 152.682 148.078 152.212 148.298 151.702C148.518 151.182 148.538 150.622 148.538 150.062C148.518 145.462 146.858 140.732 146.098 136.182C145.718 139.822 144.798 143.302 144.198 146.932C144.048 147.812 143.888 148.702 143.958 149.592Z" fill="#92C4DE"/>
<path d="M138.359 158.632C138.009 159.942 137.649 161.282 137.859 162.612C138.069 163.942 139.029 165.272 140.479 165.602C140.839 165.682 141.229 165.702 141.579 165.592C142.549 165.302 142.909 164.232 142.949 163.312C142.989 162.312 142.809 161.322 142.639 160.342C142.269 158.292 141.899 156.242 141.539 154.192C141.259 152.632 141.229 150.702 140.579 149.252C140.109 150.152 140.139 151.342 139.939 152.322C139.509 154.442 138.929 156.542 138.369 158.642L138.359 158.632Z" fill="#92C4DE"/>
<path d="M146.538 175.462C146.538 175.532 146.548 175.592 146.558 175.662C146.668 176.612 147.068 177.582 147.878 178.202C148.348 178.572 148.998 178.812 149.608 178.682C150.208 178.552 150.658 178.082 150.878 177.572C151.098 177.052 151.118 176.492 151.118 175.932C151.098 171.332 149.438 166.602 148.678 162.052C148.298 165.692 147.378 169.172 146.778 172.802C146.628 173.682 146.468 174.572 146.538 175.462Z" fill="#92C4DE"/>
<path d="M44.6183 152.302C44.8483 153.072 45.1983 153.832 45.8283 154.322C46.4583 154.812 47.4183 154.942 48.0483 154.452C48.5883 154.032 48.7583 153.262 48.6683 152.582C48.5783 151.902 48.2583 151.272 47.9883 150.642C46.6883 147.602 46.4983 144.072 46.8283 140.812C44.4983 143.512 43.6183 148.912 44.6083 152.302H44.6183Z" fill="#92C4DE"/>
<path d="M210.189 76.9812C212.649 74.4512 215.389 72.1912 218.149 70.3712C221.029 68.4812 224.429 67.2012 227.869 67.4112C228.959 67.4812 230.079 67.7112 230.979 68.3312C231.879 68.9512 232.529 70.0212 232.409 71.1112C232.259 72.4612 231.049 73.4212 229.879 74.1212C225.679 76.6112 220.819 77.6512 216.129 79.0012C213.839 79.6612 211.839 80.5612 209.709 81.5612C208.119 82.3112 204.769 83.6712 203.869 85.2712C205.509 82.3512 207.699 79.5312 210.179 76.9812H210.189Z" fill="#52B4B5"/>
<path d="M222.039 95.4112C225.479 94.8512 228.949 95.0312 232.219 96.6612C232.869 96.9812 233.539 97.4112 233.749 98.1012C234.019 98.9712 233.399 99.9312 232.579 100.331C231.759 100.731 230.799 100.701 229.889 100.611C226.959 100.321 224.159 99.3912 221.249 98.9812C218.869 98.6412 214.319 97.6112 212.039 98.5512C215.189 97.2512 218.599 95.9612 222.039 95.4012V95.4112Z" fill="#52B4B5"/>
<path d="M229.319 116.961C226.269 111.161 214.919 114.231 212.879 106.841C214.559 112.951 218.409 119.701 224.909 121.681C226.389 122.131 228.259 122.161 229.209 120.931C229.559 120.481 229.729 119.921 229.779 119.361C229.859 118.541 229.699 117.691 229.309 116.961H229.319Z" fill="#52B4B5"/>
<path d="M1.23792 88.8707C1.02792 88.5407 0.837974 88.2007 0.667974 87.8407C0.197974 86.8807 -0.132118 85.6907 0.447882 84.8007C1.02788 83.9107 2.31799 83.7308 3.30799 84.1108C6.46799 85.3108 8.82788 89.8708 11.3179 92.1308C14.0879 94.6508 18.228 98.1608 22.148 98.4708C17.538 98.1108 13.318 97.2608 9.16797 95.1708C6.05797 93.6008 3.08792 91.8507 1.23792 88.8808V88.8707Z" fill="#52B4B5"/>
<path d="M4.20851 106.201C2.58851 105.311 1.23858 104.121 0.398577 102.611C-0.0214231 101.851 -0.221452 100.821 0.368548 100.181C0.868548 99.6312 1.74852 99.6212 2.46852 99.8212C5.08852 100.561 6.23861 103.031 8.05861 104.751C10.0986 106.671 13.2286 107.821 15.9286 108.341C12.5386 108.711 7.73851 108.161 4.20851 106.211V106.201Z" fill="#52B4B5"/>
<path d="M130.098 106.531L131.548 101.871C131.548 101.871 121.808 101.581 110.088 91.2412C110.088 91.2412 107.918 95.6712 110.738 100.491C110.738 100.491 117.858 106.651 130.088 106.531H130.098Z" fill="#402A19" stroke="#221F20" stroke-width="1.5" stroke-miterlimit="10"/>
<path d="M75.5675 88.1211C75.5675 88.1211 57.9876 98.9911 53.4076 98.3211C53.4076 98.3211 52.2875 103.061 56.7175 104.041C61.1475 105.021 73.2075 100.051 74.9875 96.3011C76.7675 92.5511 77.5075 93.5611 75.5675 88.1211Z" fill="#402A19" stroke="#221F20" stroke-width="1.36" stroke-miterlimit="10"/>
<path d="M58.998 114.401C58.998 114.401 68.6681 108.221 78.3081 114.401H58.998Z" fill="#402A19"/>
<path d="M58.998 114.401C64.388 110.031 73.0181 109.701 78.3081 114.401C72.1081 111.541 65.318 111.861 58.998 114.401Z" fill="#221F20"/>
<path d="M126.549 117.571C117.919 110.051 107.449 114.751 107.449 114.751L126.549 117.571Z" fill="#402A19"/>
<path d="M126.549 117.571C120.829 113.831 114.069 113.161 107.449 114.751C113.419 111.211 122.009 112.161 126.549 117.571Z" fill="#221F20"/>
<path d="M73.6788 175.671C73.6788 175.671 69.2087 172.861 74.0687 168.251C78.9187 163.641 82.4587 161.041 95.7787 166.781C109.099 172.521 104.949 180.081 96.6187 179.151C88.2887 178.221 84.9888 179.521 73.6788 175.681V175.671Z" fill="#AB312E" stroke="#402A19" stroke-width="1.23" stroke-miterlimit="10"/>
<path d="M79.2593 167.441C79.2593 167.441 86.8493 171.471 98.6893 168.211C98.6893 168.211 93.1492 163.501 85.0992 163.571C77.0492 163.631 76.4492 166.151 76.4492 166.151L79.2593 167.451V167.441Z" fill="#F7F5F4"/>
<path d="M75.2285 176.182C75.2285 176.182 86.9286 169.792 99.4186 179.152L90.9485 178.742L75.2285 176.182Z" fill="#D84848"/>
<path d="M73.9482 175.651C73.9482 175.651 69.4782 172.841 74.3382 168.231C79.1882 163.621 82.7283 161.021 96.0483 166.761C109.378 172.491 105.218 180.061 96.8883 179.131C88.5583 178.201 85.2582 179.501 73.9482 175.661V175.651Z" stroke="#402A19" stroke-width="1.23" stroke-miterlimit="10"/>
<ellipse opacity="0.5" cx="117.551" cy="139.384" rx="40.5406" ry="22.5225" transform="rotate(-5.61894 117.551 139.384)" fill="url(#paint0_radial_1842_1620)"/>
<ellipse opacity="0.5" cx="60.5751" cy="138.609" rx="40.5406" ry="22.5225" transform="rotate(9.03455 60.5751 138.609)" fill="url(#paint1_radial_1842_1620)"/>
<defs>
<radialGradient id="paint0_radial_1842_1620" cx="0" cy="0" r="1" gradientUnits="userSpaceOnUse" gradientTransform="translate(117.551 139.384) rotate(92.2069) scale(17.4033 31.3259)">
<stop stop-color="#EA3741" stop-opacity="0.9"/>
<stop offset="1" stop-color="#FF6D6D" stop-opacity="0"/>
</radialGradient>
<radialGradient id="paint1_radial_1842_1620" cx="0" cy="0" r="1" gradientUnits="userSpaceOnUse" gradientTransform="translate(60.5751 138.609) rotate(92.2069) scale(17.4033 31.3259)">
<stop stop-color="#EA3741" stop-opacity="0.9"/>
<stop offset="1" stop-color="#FF6D6D" stop-opacity="0"/>
</radialGradient>
</defs>
</svg>
